<svg viewBox="0 0 176.58 427.21" xmlns:xlink="http://www.w3.org/1999/xlink" xmlns="http://www.w3.org/2000/svg"><defs><style>.cls-1{fill:url(#linear-gradient);}.cls-2{fill:#fff;}.cls-3{fill:#2d2521;}.cls-4{fill:url(#linear-gradient-2);}</style><linearGradient gradientUnits="userSpaceOnUse" y2="84.28" x2="88.09" y1="427.21" x1="88.09" id="linear-gradient"><stop stop-color="#f06" offset="0"></stop><stop stop-color="#ffbe23" offset="1"></stop></linearGradient><linearGradient gradientUnits="userSpaceOnUse" x2="88.29" y1="184.35" x1="88.29" id="linear-gradient-2"><stop stop-color="#302c39" offset="0"></stop><stop stop-color="#155b87" offset="1"></stop></linearGradient></defs><g data-name="图层 2" id="图层_2"><g data-name="Pre-Made Monsters" id="Pre-Made_Monsters"><path d="M157.75,125.06C147.29,103.83,125.16,88.89,102,85.19a73.36,73.36,0,0,0-13.7-.88c-38.28,1.09-74.73,31.26-79,70.29a79.24,79.24,0,0,0-.46,8.57q0,49.77-.05,99.54l0,50.45c0,8.18-.13,16.36,0,24.54.11,7.42-1.2,15.3.48,22.59,1.28,5.57,4.74,11,10.06,13a14.71,14.71,0,0,0,13-1.51A18.16,18.16,0,0,0,40,360.88c1.25-5.07.52-10.45,1.48-15.58a8.33,8.33,0,0,1,2-4.51c3-2.92,8.18-1,11,2.11,6.31,7,6,17.63,5.08,27S57.29,391.78,64.91,399c6.52,6.18,18.22,6.05,23.57-1.58,2.43-3.47,3.54-7.68,4.17-11.87,1.54-10.25.4-44.74-.22-55.1-.12-2,.3-4.76,2.32-5a2.83,2.83,0,0,1,2.83,2.16c1.76,5.78-1.12,36.72.48,42.55,2,7.22,8.09,12.75,15.78,12.74A15.76,15.76,0,0,0,128.26,373c1.77-4.46,1.77-9.42,1.36-14.2-.57-6.66-2.18-13.84,0-20.37a3.79,3.79,0,0,1,.8-1.51c1.27-1.29,3.65-.36,4.43,1.26,1.73,3.61-.05,9.58.08,13.45.3,8.79,5.39,17,14.79,17.91a16.41,16.41,0,0,0,18-16.31V198.51C167.71,173.74,169,147.91,157.75,125.06ZM31.08,384.26c-6.22,3.89-6.59,10.5-5.61,15.78C26.58,406,31,410.89,37,411.72,53.27,414,41.2,377.92,31.08,384.26Zm20.2,27.17C48.43,413.35,47.9,417,48,420c.14,3.37,1.76,6.32,4.23,7C59,429.05,55.93,408.31,51.28,411.43Zm66.77-15a2.19,2.19,0,0,0-1.78,2.67,3.4,3.4,0,0,0,2.88,2.39C123.48,402.3,120.88,395.54,118.05,396.4Zm29.19,1c-4.61-.72-6.43,1.75-7.12,4.18-.77,2.73.68,6.29,4,8.77C153.19,417.13,154.75,398.56,147.24,397.38ZM135,388.43c-3-.47-4.17,1.13-4.61,2.7-.5,1.77.44,4.08,2.58,5.69C138.85,401.22,139.85,389.19,135,388.43Z" class="cls-1"></path><path d="M125,152.28a32.42,32.42,0,1,1-32.42-32.42A32.42,32.42,0,0,1,125,152.28Z" class="cls-2"></path><path d="M94.39,159a8.84,8.84,0,1,1-8.83-8.83A8.83,8.83,0,0,1,94.39,159Z" class="cls-3"></path><path d="M90.34,155.31a1.58,1.58,0,1,1-1.58-1.58A1.58,1.58,0,0,1,90.34,155.31Z" class="cls-2"></path><path d="M176.58,88.3A88.29,88.29,0,1,0,0,88.3V155H9.31v27.2a2.13,2.13,0,0,0,4.26,0V155H41.21l1.52-17.82L46,154.68l73.22.19,1.08-22.65.52,22.65,43.07.12v27.23a2.13,2.13,0,1,0,4.26,0V155l8.47,0Z" class="cls-4"></path></g></g></svg>