<svg viewBox="0 0 268.64 402.78" xmlns="http://www.w3.org/2000/svg"><defs><style>.cls-1,.cls-6{fill:#fff;}.cls-1,.cls-2,.cls-4,.cls-5{fill-rule:evenodd;}.cls-3{fill:#ffa929;}.cls-4{fill:#ea5f1b;}.cls-5{opacity:0.2;}.cls-7{fill:#2d2521;}</style></defs><g data-name="图层 2" id="图层_2"><g data-name="Pre-Made Monsters" id="Pre-Made_Monsters"><path d="M232.49,66.74a36.15,36.15,0,1,0,36.15,36.15A36.15,36.15,0,0,0,232.49,66.74Zm-196.34,0a36.15,36.15,0,1,0,36.14,36.14A36.14,36.14,0,0,0,36.15,66.74Zm98.29-8.17a36.15,36.15,0,1,0,36.14,36.15A36.14,36.14,0,0,0,134.44,58.57Z" class="cls-1"></path><path d="M231.65,93.12a10.25,10.25,0,1,0,10.25,10.24A10.23,10.23,0,0,0,231.65,93.12Zm-193,0a10.25,10.25,0,1,0,10.24,10.24A10.24,10.24,0,0,0,38.61,93.12Zm96.8-10.25a10.25,10.25,0,1,0,10.25,10.24A10.25,10.25,0,0,0,135.41,82.87Z" class="cls-2"></path><path d="M220.31,50.14c-12.86-26.1-40.08-44.47-68.52-49A90.83,90.83,0,0,0,134.94,0C87.88,1.38,43.05,38.47,37.85,86.48A97.35,97.35,0,0,0,37.28,97q0,61.2-.06,122.4,0,31,0,62c0,10.06-.16,20.13,0,30.18.13,9.13-1.47,18.81.59,27.78,1.57,6.85,5.83,13.48,12.37,16a18.07,18.07,0,0,0,16-1.85,22.39,22.39,0,0,0,9.32-13.45c1.54-6.24.64-12.85,1.82-19.17a10.2,10.2,0,0,1,2.48-5.54c3.66-3.6,10.06-1.23,13.48,2.59,7.76,8.65,7.36,21.69,6.24,33.26s-2.74,26.85,6.63,35.72c8,7.6,22.41,7.43,29-1.95,3-4.26,4.36-9.44,5.13-14.59,1.89-12.61.49-55-.27-67.75-.16-2.51.36-5.86,2.85-6.2a3.5,3.5,0,0,1,3.48,2.66c2.16,7.12-1.38,45.16.59,52.33,2.45,8.87,10,15.67,19.4,15.66A19.35,19.35,0,0,0,184,355.07c2.18-5.48,2.19-11.57,1.68-17.45-.7-8.19-2.68-17,0-25.05a4.62,4.62,0,0,1,1-1.87c1.55-1.57,4.49-.43,5.44,1.56,2.13,4.43-.06,11.78.1,16.54.37,10.81,6.63,20.9,18.18,22a20.2,20.2,0,0,0,22.12-20.06V140.47C232.56,110,234.14,78.24,220.31,50.14ZM64.54,368.89c-7.65,4.78-8.11,12.9-6.89,19.4,1.36,7.27,6.84,13.34,14.16,14.36C91.83,405.46,77,361.09,64.54,368.89ZM90.38,344c-3.5,2.35-4.15,6.89-4,10.58.17,4.14,2.15,7.77,5.2,8.66C99.91,365.63,96.1,340.12,90.38,344Zm81.12,39.84c-2.14.65-2.41,2.09-2.2,3.28a4.18,4.18,0,0,0,3.54,3C178.17,391.07,175,382.76,171.5,383.81ZM207.38,385c-5.67-.88-7.9,2.15-8.74,5.14-.95,3.36.83,7.73,4.91,10.79C214.71,409.31,216.62,386.47,207.38,385Zm-15.06-11c-3.68-.58-5.12,1.39-5.67,3.33-.61,2.17.54,5,3.18,7C197.06,389.75,198.3,375,192.32,374Z" class="cls-3"></path><path d="M180,111.65c-7.71,8.71-27.38,20.08-43.84,19.55s-31.31-14.86-41.4-25.48-47.87-3.41-40.86,29.18c7.65,35.56,37.36,52,79.29,52s81.09-21.12,83-57.18C217.67,102.91,192.19,97.85,180,111.65Z" class="cls-4"></path><path d="M178.6,119c-7.07,7.28-27.94,16.46-43,16S101.29,120,92,111.15s-38-3.6-30.67,23.46,33.1,44.8,71.55,44.8,74.37-17.66,76.16-47.79C210.4,109.2,189.8,107.47,178.6,119Z" class="cls-1"></path><path d="M209.37,131.41A38.49,38.49,0,0,1,206.9,143l-2.37-9.53-6.39-3.27-5.25,12.29-18.6-3.19-12.59,19.8L150,148.21l-7,14.56L132.6,152.23l-21.81,16.61-1.05-25L99,151.62l-3.75-10.85L75.92,152.83l5.62-23L69,133.45,71.79,121l-2.24-.52-9.23,8.8C59.11,118.64,64,112.6,70.44,109.43l-.15,9.46,3.41.83-2.12,11.37L83,128.52l-4.66,21,17.18-10.73,4.24,11.37,11-8.8.84,25.1,20.79-15.66,10.39,9.66,6.78-14.38,11.88,11.16L174,137.74l18.45,3.44,5.3-12.45,6.57,3.22L208,120.79A25.41,25.41,0,0,1,209.37,131.41Z" class="cls-2"></path><path d="M181.79,119.65c-4.45,3.28-10.92,15-38.28,18.23S98,121.34,92.33,114.25C83.56,103.38,67.21,111,67.21,111c7.12-8.68,19.54-6.83,25.71-2,2.9,2.25,21.71,21.8,39,24s39.89-9.87,45.4-14.81,7.66-7.35,13.6-8.75c8.14-1.93,12.1,5.35,12.1,5.35C188.63,111.41,186.5,116.18,181.79,119.65Zm-54.14,65.42c60.95,3.44,83.9-36.93,83.9-36.93s-20.49,46.21-82.11,44.28C66.17,190.43,56.49,144,56.49,144S70.66,181.85,127.65,185.07Z" class="cls-5"></path><path d="M178.28,73a38,38,0,1,1-38-38A38,38,0,0,1,178.28,73Z" class="cls-6"></path><path d="M142.39,80.86A10.36,10.36,0,1,1,132,70.5,10.36,10.36,0,0,1,142.39,80.86Z" class="cls-7"></path><path d="M137.64,76.53a1.85,1.85,0,1,1-1.85-1.85A1.85,1.85,0,0,1,137.64,76.53Z" class="cls-6"></path></g></g></svg>