<svg viewBox="0 0 284.21 366.79" xmlns:xlink="http://www.w3.org/1999/xlink" xmlns="http://www.w3.org/2000/svg"><defs><style>.cls-1,.cls-10,.cls-11,.cls-12,.cls-2,.cls-3,.cls-4,.cls-5,.cls-6{fill-rule:evenodd;}.cls-1{fill:url(#linear-gradient);}.cls-12,.cls-2,.cls-4{fill:#fff;}.cls-4{opacity:0.3;}.cls-5{fill:#331b0e;}.cls-6{fill:#5e20d2;}.cls-7{fill:#1e1411;}.cls-8{opacity:0.2;}.cls-9{fill:#380a2a;opacity:0.4;}.cls-10{fill:#00a6dd;opacity:0.1;}.cls-11{fill:#beefff;}.cls-12{opacity:0.5;}</style><linearGradient gradientUnits="userSpaceOnUse" y2="22.62" x2="149.61" y1="366.79" x1="149.61" id="linear-gradient"><stop stop-color="#2c534e" offset="0"></stop><stop stop-color="#aeff00" offset="1"></stop></linearGradient></defs><g data-name="图层 2" id="图层_2"><g data-name="Pre-Made Monsters" id="Pre-Made_Monsters"><path d="M151.2,366.26C65.41,372,31.6,329.51,29,288.6,26,242.55,26.41,30.36,138.67,22.82s128,199.94,132,258.55S237,360.5,151.2,366.26Z" class="cls-1"></path><path d="M187.53,141.12a38.3,38.3,0,1,1,38.3-38.3A38.3,38.3,0,0,1,187.53,141.12Zm-93.7,0a38.3,38.3,0,1,1,38.3-38.3A38.3,38.3,0,0,1,93.83,141.12Z" class="cls-2"></path><path d="M168,111.87a5.16,5.16,0,1,0,5.15,5.16A5.15,5.15,0,0,0,168,111.87Zm-56.14.53a5.15,5.15,0,1,0,5.16,5.15A5.15,5.15,0,0,0,111.88,112.4Z" class="cls-3"></path><path d="M169.2,134.34l-3.85-5,36.81-51.19,5.53.31Zm-14.48-18.85,31-38.3,10.44.6-34.84,46.33ZM58.29,129.33,95.11,78.14l5.52.31L62.14,134.34ZM47.66,115.49l31-38.3,10.44.6L54.29,124.12Z" class="cls-4"></path><path d="M240.92,89.79a20.79,20.79,0,0,1-3.16,9.44c-2.09,15.7-8.55,51.14-42.06,50.33s-38.85-15.51-42.06-22-7.51-19.68-9.47-25.16a4.81,4.81,0,0,0-5.25-3.15v-.3a4.58,4.58,0,0,0-4.2,3.19c-1.95,5.52-6.24,18.76-9.45,25.3s-8.54,21.33-42,22.14-39.9-34.81-42-50.6a20.93,20.93,0,0,1-3.15-9.49c-.32-5.31-4.34-12.15,8.4-14.76s45.05-8.39,67.17-1.06S138.58,80,140,80v.44c2.06,0,7.25-.43,25.24-6.36,22.15-7.3,54.53-1.54,67.3,1S241.23,84.51,240.92,89.79Zm-131.65-7c-7.52-1.85-42.83-11-51.8,7.39-9.52,19.5.51,49.13,23.25,50.65,9.29.63,29.77,2.26,39.12-25.33S116.78,84.66,109.27,82.82Zm111.51,7.7c-8.9-18.36-44-9.22-51.43-7.38s-19.78,5.13-10.49,32.69,29.61,25.92,38.83,25.3C220.27,139.6,230.23,110,220.78,90.52Z" class="cls-5"></path><path d="M235.62,87.77h-3.15a1.59,1.59,0,0,1,0-3.17h3.15a1.59,1.59,0,0,1,0,3.17Zm-191,0a1.59,1.59,0,0,1,0-3.17h3.15a1.59,1.59,0,0,1,0,3.17Z" class="cls-6"></path><path d="M190.79,156.5H97.94c-6.19,0-6.19,9.91,0,9.91h92.85C198.22,166.41,198.22,156.5,190.79,156.5Z" class="cls-7"></path><path d="M114.35,174.46a99.48,99.48,0,0,0,56.33,0S141.93,200.1,114.35,174.46Z" class="cls-8"></path><path d="M84.33,153.41a1.86,1.86,0,0,1,0-3.72A1.86,1.86,0,0,1,84.33,153.41Zm2.47,5.26a1.86,1.86,0,0,0,0,3.71A1.86,1.86,0,1,0,86.8,158.67Zm-8.66-1.55a1.86,1.86,0,1,0,0,3.71A1.86,1.86,0,0,0,78.14,157.12Zm126.27-.31a1.86,1.86,0,0,0,0,3.72A1.86,1.86,0,1,0,204.41,156.81Zm7.43,3.1a1.86,1.86,0,1,0,0,3.71A1.86,1.86,0,1,0,211.84,159.91Zm1.24-8.36a1.86,1.86,0,1,0,0,3.71A1.86,1.86,0,0,0,213.08,151.55Z" class="cls-9"></path><path d="M267.53,189.76l-2.39.51-.21,0c-2.48.53-5.06,1.05-7.72,1.57l-.23.05-2.44.47-.3.06q-4.06.76-8.38,1.53l-.35.06-2.62.45-.28.05q-3,.51-6.05,1h-.1l-2.92.46-.37.06-3,.44-.11,0-6.51.93-.2,0-3.08.41-.32,0c-3.34.43-6.75.85-10.22,1.24l-.23,0c-1.1.12-2.21.25-3.33.36l-.19,0c-3.55.38-7.17.74-10.86,1.06l-.19,0q-7.41.65-15.14,1.13h-.11c-48.17,3-105.35.36-163-16.17V117.38A114.6,114.6,0,0,1,131.28,2.77h21.65a114.6,114.6,0,0,1,114.6,114.61v72.38Z" class="cls-10"></path><path d="M284.21,185.88c0,10.92-63.62,19.77-142.1,19.77S0,196.8,0,185.88c0-2.7,3.91-5.28,11-7.62V119.62A119.62,119.62,0,0,1,130.59,0h22.6A119.62,119.62,0,0,1,272.8,119.62v58.49C280.14,180.49,284.21,183.12,284.21,185.88Zm-20.62-63.25a111.19,111.19,0,0,0-111.2-111.2h-21a111.2,111.2,0,0,0-111.2,111.2v53.09c1-.23,2-.45,3-.67a29.34,29.34,0,0,0-3,1.16v6.43C33.35,188.69,82.9,193.18,142,193.18c58.71,0,108-4.43,121.56-10.42v-6.67a29.3,29.3,0,0,0-3-1.14c1,.22,2.06.44,3,.67Z" class="cls-11"></path><path d="M271.7,188.76c-5.65,5.65-38,8.29-51.8,9.42s-16.39-4.33-5.84-4.71,40.65-2.38,47.47-5.65C266.24,185.56,277.35,183.11,271.7,188.76ZM239.53,147a9.93,9.93,0,1,1,9.94-9.93A9.93,9.93,0,0,1,239.53,147Zm-.81-27.64c-3-.43-13.32,2.68-13.32-24.5,0-27.84-27.93-40-40.39-43-12.95-3.13-20.2-6-19.77-13.33s4.3-13.32,30.51-7.3,49.85,41.87,51.57,55.44C251.14,116.86,241.73,119.75,238.72,119.32Z" class="cls-12"></path></g></g></svg>