<svg viewBox="0 0 347.64 399.57" xmlns:xlink="http://www.w3.org/1999/xlink" xmlns="http://www.w3.org/2000/svg"><defs><style>.cls-1,.cls-2,.cls-3,.cls-4,.cls-5,.cls-6,.cls-7{fill-rule:evenodd;}.cls-1{fill:url(#linear-gradient);}.cls-2{opacity:0.2;}.cls-3,.cls-7{fill:#fff;}.cls-5{fill:#00a6dd;opacity:0.1;}.cls-6{fill:#beefff;}.cls-7{opacity:0.5;}</style><linearGradient gradientUnits="userSpaceOnUse" y2="43.53" x2="173.82" y1="399.57" x1="173.82" id="linear-gradient"><stop stop-color="#810cc4" offset="0"></stop><stop stop-color="#d01464" offset="1"></stop></linearGradient></defs><g data-name="图层 2" id="图层_2"><g data-name="Pre-Made Monsters" id="Pre-Made_Monsters"><path d="M284.69,100.91c-23-11.59-35.45,2.8-28.14,26.72,24.15,64.5,29.83,150,32,184.6,3.68,59.93-30.69,80.91-108.85,86.81s-109-37.58-111.35-79.42C66.67,290.92,66.16,199.08,89.18,130a4,4,0,0,1,.14-.47c.07-.17.13-.34.19-.51q.63-1.88,1.29-3.72c7.88-25-4.28-37.93-27.85-26.07-50.1,25.23-77.67-19.85-54.83-43.4s44-9.06,61.22,8.38c19.22,19.51,57,.1,67.86-6.18.94-.59,1.88-1.16,2.85-1.7l.18-.12v0c1.16-.65,2.34-1.27,3.54-1.85s2.31-1.07,3.49-1.56a67.28,67.28,0,0,1,21-5A63.8,63.8,0,0,1,207,57v0s48.65,31.88,71.28,8.92c17.18-17.44,38.37-31.93,61.21-8.38S334.8,126.14,284.69,100.91Z" class="cls-1"></path><path d="M168.49,254.29c1.82-.89,3.57-4.07,12.07-3.83.54,0,1.06,0,1.58.1s1,.11,1.5.18a25.36,25.36,0,0,1,2.74.58,17.54,17.54,0,0,1,4.27,1.77,7.6,7.6,0,0,1,2.36,2,3,3,0,0,1,.48.92,1.44,1.44,0,0,1,.06.4,1,1,0,0,1,0,.36c-.77,1.73-12.37-4.91-21.83-.54a28.29,28.29,0,0,1-5,1.59h-.24l-.19,0a.41.41,0,0,1-.24-.14.45.45,0,0,1-.11-.24v-.15l0-.17C166.21,256.17,168,254.62,168.49,254.29Z" class="cls-2"></path><path d="M221.8,245l3.1-8.92,10.39,4.39-3.95,7.73Z" class="cls-3"></path><path d="M228.66,247.8l3.22-8.89,4.39,2-2.22,7.92Z" class="cls-2"></path><path d="M248.28,259c-15.6-11.12-42.87-18.21-73.79-17.66-30.7.54-57.54,8.48-72.79,20L98.05,261c16.07-12.37,44.22-20.86,76.4-21.43s60.79,7,77.26,18.82Z" class="cls-4"></path><path d="M218,234.7a35.25,35.25,0,1,1,35.25-35.25A35.25,35.25,0,0,1,218,234.7Zm-86.24,0A35.25,35.25,0,1,1,167,199.45,35.25,35.25,0,0,1,131.76,234.7Z" class="cls-3"></path><path d="M200.05,207.78a4.75,4.75,0,1,0,4.74,4.74A4.75,4.75,0,0,0,200.05,207.78Zm-51.67.48a4.75,4.75,0,1,0,4.74,4.74A4.74,4.74,0,0,0,148.38,208.26Z" class="cls-4"></path><path d="M259.74,129l-1.62.35-.15,0c-1.68.35-3.43.71-5.24,1.06l-.16,0-1.66.32-.21,0c-1.84.35-3.73.69-5.69,1l-.24,0-1.78.31-.19,0-4.12.68h-.06l-2,.31-.26,0-2,.3h-.08c-1.45.22-2.93.43-4.43.63l-.13,0-2.09.28-.22,0q-3.4.45-6.95.85h-.15l-2.27.25-.13,0q-3.61.38-7.38.72h-.13c-3.36.29-6.79.55-10.29.76H200c-32.75,2-71.63.25-110.85-11V79.8A77.92,77.92,0,0,1,167.11,1.89h14.72A77.91,77.91,0,0,1,259.74,79.8V129Z" class="cls-5"></path><path d="M271.08,126.37c0,7.43-43.25,13.44-96.61,13.44s-96.62-6-96.62-13.44c0-1.83,2.66-3.58,7.46-5.18V81.33A81.33,81.33,0,0,1,166.64,0H182a81.33,81.33,0,0,1,81.33,81.33v39.76C268.32,122.71,271.08,124.5,271.08,126.37Zm-14-43a75.6,75.6,0,0,0-75.6-75.6H167.18a75.6,75.6,0,0,0-75.6,75.6v36.1c.66-.16,1.35-.31,2.06-.46a19.13,19.13,0,0,0-2.06.79v4.37c9,4.11,42.64,7.17,82.84,7.17,39.91,0,73.41-3,82.64-7.08v-4.54a20.36,20.36,0,0,0-2.07-.78l2.07.46Z" class="cls-6"></path><path d="M262.58,128.33c-3.85,3.85-25.87,5.64-35.22,6.41s-11.14-3-4-3.2,27.63-1.62,32.27-3.85C258.86,126.16,266.42,124.49,262.58,128.33ZM240.71,99.92a6.76,6.76,0,1,1,6.75-6.76A6.76,6.76,0,0,1,240.71,99.92Zm-.55-18.8c-2-.29-9.06,1.82-9.06-16.65,0-18.93-19-27.18-27.46-29.22-8.81-2.13-13.73-4.09-13.44-9.06s2.92-9.06,20.74-5S244.83,49.69,246,58.92C248.6,79.45,242.2,81.41,240.16,81.12Z" class="cls-7"></path></g></g></svg>