<svg viewBox="0 0 213.14 402.02" xmlns:xlink="http://www.w3.org/1999/xlink" xmlns="http://www.w3.org/2000/svg"><defs><style>.cls-1,.cls-2,.cls-3,.cls-4,.cls-5{fill-rule:evenodd;}.cls-1{fill:url(#linear-gradient);}.cls-2{fill:#fff;}.cls-4{fill:#01b7d8;}.cls-5{opacity:0.2;}</style><linearGradient gradientUnits="userSpaceOnUse" x2="106.57" y1="402.02" x1="106.57" id="linear-gradient"><stop stop-color="#751deb" offset="0"></stop><stop stop-color="#302c39" offset="1"></stop></linearGradient></defs><g data-name="图层 2" id="图层_2"><g data-name="Pre-Made Monsters" id="Pre-Made_Monsters"><path d="M211.3,347.38c8.38,33.62-13.65,44.6-29.65,36-14.44-7.71-1.47-44-21.73-62.22a99,99,0,0,1-11.17,6.48c.95,5.18,2.05,11.27,3,18.13.5,3.59,1,7.38,1.31,11.36.18,2,.33,4,.45,6.1s.21,4.2.25,6.36c.4,17.28-4.86,26.92-11.83,30.6a15.46,15.46,0,0,1-5.68,1.69q-.75.07-1.53.09c-.52,0-1,0-1.57,0a22.82,22.82,0,0,1-3.24-.42,29.32,29.32,0,0,1-12.8-6.24C105.73,385,116,359.74,113.22,337.7c-3,.26-5.92.41-8.93.41a100,100,0,0,1-10-.51c-4.32,21.92,4.53,48.08-7.55,57.7a29.32,29.32,0,0,1-13.15,5.43,22.84,22.84,0,0,1-3.27.22c-.53,0-1,0-1.57-.06s-1-.11-1.52-.19a15.76,15.76,0,0,1-5.57-2c-6.73-4.11-11.38-14.05-9.9-31.28.18-2.15.4-4.26.64-6.33s.53-4.08.83-6.06c.6-3.95,1.29-7.7,2-11.25,1.25-6.16,2.58-11.68,3.76-16.46-2.94-1.5-5.81-3.13-8.58-4.91C31.42,341.93,47,377.31,33.12,386,17.76,395.71-5,386.32,1,352.19c5-28.65,18.84-47.87,23.15-54.32A99.49,99.49,0,0,1,4.34,238.16V100a100,100,0,0,1,199.9,0V238.16a99.47,99.47,0,0,1-18.7,58.21C191.27,303.67,204.78,321.21,211.3,347.38Z" class="cls-1"></path><path d="M101.29,179a29.76,29.76,0,1,0,30.59,29.13A29.86,29.86,0,0,0,101.29,179ZM99.15,76.85A29.76,29.76,0,1,0,68.57,47.72,29.87,29.87,0,0,0,99.15,76.85ZM77,128.49A30,30,0,1,0,106.37,98.1,29.86,29.86,0,0,0,77,128.49Z" class="cls-2"></path><path d="M101.34,199.6a8.44,8.44,0,1,0,8.67,8.26A8.46,8.46,0,0,0,101.34,199.6ZM106.67,49a8.5,8.5,0,1,0-8.32,8.61A8.47,8.47,0,0,0,106.67,49Zm1.5,71.25a8.44,8.44,0,1,0,8.67,8.26A8.47,8.47,0,0,0,108.17,120.2Z" class="cls-3"></path><path d="M166.66,248.15c-10.74-3.72-30.47,11.51-59.87,13S71.52,253.36,51.6,248.9c-13.82-3.09-21.18,18.59-.65,29.94,27.88,15.41,83.39,23.26,116.68-7.12C177.47,262.73,174.76,251,166.66,248.15Z" class="cls-4"></path><path d="M50.47,274.81c28.07,15.41,84,23.26,117.51-7.12a18.94,18.94,0,0,0,6-9.53c2.11,4.95.94,11.84-5.4,17.58C135,306.12,79.12,298.27,51,282.86c-10.69-5.87-13.87-14.5-12.53-21C40.07,266.44,43.81,271.16,50.47,274.81Z" class="cls-5"></path><path d="M59.17,264.71c24.86,11.39,65.2,16.52,93.51-1.95,2.8-1.83,4.29-2.94,6.88-3.58,3-.83.51,5.62-4.89,9C129.19,284.37,86,285.4,57.78,271.16c-8.6-4.34-11.24-10.3-9.4-12.8C50.54,257.17,53.73,262.21,59.17,264.71Z" class="cls-5"></path><path d="M50,259.91c11.27,10.84,32.09,17.77,54.72,17.77s43.23-6.9,54.54-17.61c.95.15.83.09,1.67.22-11.92,11.5-32.64,19.11-56.21,19.11s-44.4-7.65-56.3-19.2C49.21,260,49.1,260.09,50,259.91Z" class="cls-3"></path></g></g></svg>